<mxfile host="Electron" modified="2024-05-27T07:15:14.548Z" agent="Mozilla/5.0 (Windows NT 10.0; Win64; x64) AppleWebKit/537.36 (KHTML, like Gecko) draw.io/24.1.0 Chrome/120.0.6099.109 Electron/28.1.0 Safari/537.36" etag="kC4ate_hAMD8ZrYJhdHU" version="24.1.0" type="device">
  <diagram id="C5RBs43oDa-KdzZeNtuy" name="Page-1">
    <mxGraphModel dx="1436" dy="1014" grid="0" gridSize="10" guides="1" tooltips="1" connect="1" arrows="1" fold="1" page="0" pageScale="1" pageWidth="827" pageHeight="1169" math="0" shadow="0">
      <root>
        <mxCell id="WIyWlLk6GJQsqaUBKTNV-0" />
        <mxCell id="WIyWlLk6GJQsqaUBKTNV-1" parent="WIyWlLk6GJQsqaUBKTNV-0" />
        <mxCell id="1_NpZ_uhU7yIxvNDv878-58" value="" style="rounded=0;whiteSpace=wrap;html=1;fillColor=#dae8fc;gradientColor=#7ea6e0;strokeColor=#6c8ebf;" parent="WIyWlLk6GJQsqaUBKTNV-1" vertex="1">
          <mxGeometry x="387" y="166" width="173" height="183" as="geometry" />
        </mxCell>
        <mxCell id="48" value="" style="rounded=1;whiteSpace=wrap;html=1;fontSize=9;fillColor=#eeeeee;strokeColor=#36393d;" parent="WIyWlLk6GJQsqaUBKTNV-1" vertex="1">
          <mxGeometry x="-145" y="-40" width="120" height="141" as="geometry" />
        </mxCell>
        <mxCell id="35" value="" style="rounded=0;whiteSpace=wrap;html=1;fontSize=10;fillColor=#dae8fc;strokeColor=#6c8ebf;" parent="WIyWlLk6GJQsqaUBKTNV-1" vertex="1">
          <mxGeometry x="613.5" y="144" width="335" height="297" as="geometry" />
        </mxCell>
        <mxCell id="33" value="" style="rounded=0;whiteSpace=wrap;html=1;fontSize=10;fillColor=#dae8fc;strokeColor=#6c8ebf;" parent="WIyWlLk6GJQsqaUBKTNV-1" vertex="1">
          <mxGeometry x="115" y="166" width="164" height="280" as="geometry" />
        </mxCell>
        <mxCell id="17" value="" style="rounded=0;whiteSpace=wrap;html=1;fontSize=10;fillColor=#e1d5e7;strokeColor=#9673a6;" parent="WIyWlLk6GJQsqaUBKTNV-1" vertex="1">
          <mxGeometry x="115" y="-47" width="165" height="163" as="geometry" />
        </mxCell>
        <mxCell id="C3DGGDGm_dIaB58rAfDw-10" value="" style="endArrow=none;dashed=1;html=1;rounded=0;" parent="WIyWlLk6GJQsqaUBKTNV-1" edge="1">
          <mxGeometry width="50" height="50" relative="1" as="geometry">
            <mxPoint x="368" y="532" as="sourcePoint" />
            <mxPoint x="368" y="-148" as="targetPoint" />
          </mxGeometry>
        </mxCell>
        <mxCell id="C3DGGDGm_dIaB58rAfDw-11" value="" style="endArrow=none;dashed=1;html=1;rounded=0;" parent="WIyWlLk6GJQsqaUBKTNV-1" edge="1">
          <mxGeometry width="50" height="50" relative="1" as="geometry">
            <mxPoint x="585" y="531" as="sourcePoint" />
            <mxPoint x="585" y="-155" as="targetPoint" />
          </mxGeometry>
        </mxCell>
        <mxCell id="C3DGGDGm_dIaB58rAfDw-22" value="" style="edgeStyle=orthogonalEdgeStyle;rounded=0;orthogonalLoop=1;jettySize=auto;html=1;fontSize=15;" parent="WIyWlLk6GJQsqaUBKTNV-1" edge="1">
          <mxGeometry relative="1" as="geometry">
            <Array as="points">
              <mxPoint x="598" y="-8" />
              <mxPoint x="808" y="-8" />
            </Array>
            <mxPoint x="598" y="95" as="sourcePoint" />
          </mxGeometry>
        </mxCell>
        <mxCell id="0" value="&lt;span style=&quot;font-size: 10px&quot;&gt;Recepcionar mensaje&lt;/span&gt;" style="rounded=1;whiteSpace=wrap;html=1;fontSize=10;" parent="WIyWlLk6GJQsqaUBKTNV-1" vertex="1">
          <mxGeometry x="134.5" y="269" width="120" height="60" as="geometry" />
        </mxCell>
        <mxCell id="1" value="topic_yape_anti-fraud" style="rounded=1;whiteSpace=wrap;html=1;fontSize=10;" parent="WIyWlLk6GJQsqaUBKTNV-1" vertex="1">
          <mxGeometry x="412.5" y="187" width="120" height="60" as="geometry" />
        </mxCell>
        <mxCell id="3" value="&lt;span style=&quot;font-size: 14px&quot;&gt;&lt;b&gt;API Transaction&lt;/b&gt;&lt;/span&gt;" style="text;html=1;strokeColor=none;fillColor=none;align=center;verticalAlign=middle;whiteSpace=wrap;rounded=0;fontSize=14;" parent="WIyWlLk6GJQsqaUBKTNV-1" vertex="1">
          <mxGeometry x="198" y="-130" width="130" height="30" as="geometry" />
        </mxCell>
        <mxCell id="5" value="&lt;b&gt;Kafka (confluent&lt;/b&gt;&lt;b&gt;)&lt;/b&gt;" style="text;html=1;strokeColor=none;fillColor=none;align=center;verticalAlign=middle;whiteSpace=wrap;rounded=0;fontSize=14;" parent="WIyWlLk6GJQsqaUBKTNV-1" vertex="1">
          <mxGeometry x="397" y="-130" width="147" height="30" as="geometry" />
        </mxCell>
        <mxCell id="6" value="&lt;span style=&quot;font-size: 14px&quot;&gt;&lt;b&gt;API Anti-fraud&lt;/b&gt;&lt;/span&gt;" style="text;html=1;strokeColor=none;fillColor=none;align=center;verticalAlign=middle;whiteSpace=wrap;rounded=0;fontSize=14;" parent="WIyWlLk6GJQsqaUBKTNV-1" vertex="1">
          <mxGeometry x="767" y="-130" width="114" height="30" as="geometry" />
        </mxCell>
        <mxCell id="7" value="topic_yape_transaction" style="rounded=1;whiteSpace=wrap;html=1;fontSize=10;" parent="WIyWlLk6GJQsqaUBKTNV-1" vertex="1">
          <mxGeometry x="412" y="269" width="119" height="60" as="geometry" />
        </mxCell>
        <mxCell id="8" value="&lt;span style=&quot;font-size: 10px&quot;&gt;Emitir mensaje&lt;/span&gt;" style="rounded=1;whiteSpace=wrap;html=1;fontSize=10;" parent="WIyWlLk6GJQsqaUBKTNV-1" vertex="1">
          <mxGeometry x="134.5" y="187" width="120" height="60" as="geometry" />
        </mxCell>
        <mxCell id="9" value="&lt;span style=&quot;font-size: 10px&quot;&gt;Recepcionar mensaje&lt;/span&gt;" style="rounded=1;whiteSpace=wrap;html=1;fontSize=10;" parent="WIyWlLk6GJQsqaUBKTNV-1" vertex="1">
          <mxGeometry x="633" y="185" width="120" height="60" as="geometry" />
        </mxCell>
        <mxCell id="10" value="&lt;span style=&quot;font-size: 10px&quot;&gt;Emitir mensaje&lt;/span&gt;" style="rounded=1;whiteSpace=wrap;html=1;fontSize=10;" parent="WIyWlLk6GJQsqaUBKTNV-1" vertex="1">
          <mxGeometry x="633" y="267" width="122.5" height="60" as="geometry" />
        </mxCell>
        <mxCell id="11" value="" style="endArrow=classic;html=1;fontSize=10;exitX=1;exitY=0.5;exitDx=0;exitDy=0;" parent="WIyWlLk6GJQsqaUBKTNV-1" source="8" target="1" edge="1">
          <mxGeometry width="50" height="50" relative="1" as="geometry">
            <mxPoint x="484.5" y="439" as="sourcePoint" />
            <mxPoint x="534.5" y="389" as="targetPoint" />
          </mxGeometry>
        </mxCell>
        <mxCell id="12" value="" style="endArrow=classic;html=1;fontSize=10;exitX=1;exitY=0.5;exitDx=0;exitDy=0;" parent="WIyWlLk6GJQsqaUBKTNV-1" source="1" target="9" edge="1">
          <mxGeometry width="50" height="50" relative="1" as="geometry">
            <mxPoint x="438.5" y="439" as="sourcePoint" />
            <mxPoint x="488.5" y="389" as="targetPoint" />
          </mxGeometry>
        </mxCell>
        <mxCell id="13" value="" style="endArrow=classic;html=1;fontSize=10;exitX=0;exitY=0.5;exitDx=0;exitDy=0;" parent="WIyWlLk6GJQsqaUBKTNV-1" source="10" target="7" edge="1">
          <mxGeometry width="50" height="50" relative="1" as="geometry">
            <mxPoint x="438.5" y="427" as="sourcePoint" />
            <mxPoint x="488.5" y="377" as="targetPoint" />
          </mxGeometry>
        </mxCell>
        <mxCell id="14" value="" style="endArrow=classic;html=1;fontSize=10;entryX=1;entryY=0.5;entryDx=0;entryDy=0;exitX=0;exitY=0.5;exitDx=0;exitDy=0;" parent="WIyWlLk6GJQsqaUBKTNV-1" source="7" target="0" edge="1">
          <mxGeometry width="50" height="50" relative="1" as="geometry">
            <mxPoint x="484.5" y="427" as="sourcePoint" />
            <mxPoint x="534.5" y="377" as="targetPoint" />
          </mxGeometry>
        </mxCell>
        <mxCell id="15" value="Query (findAll)" style="rounded=1;whiteSpace=wrap;html=1;fontSize=10;" parent="WIyWlLk6GJQsqaUBKTNV-1" vertex="1">
          <mxGeometry x="139" y="-23" width="120" height="36" as="geometry" />
        </mxCell>
        <mxCell id="16" value="Query (findById)" style="rounded=1;whiteSpace=wrap;html=1;fontSize=10;" parent="WIyWlLk6GJQsqaUBKTNV-1" vertex="1">
          <mxGeometry x="139" y="20" width="120" height="31" as="geometry" />
        </mxCell>
        <mxCell id="18" value="Grapql" style="text;html=1;strokeColor=none;fillColor=none;align=center;verticalAlign=middle;whiteSpace=wrap;rounded=0;fontSize=10;" parent="WIyWlLk6GJQsqaUBKTNV-1" vertex="1">
          <mxGeometry x="115" y="-77" width="60" height="30" as="geometry" />
        </mxCell>
        <mxCell id="19" value="Mutation (save transaction)" style="rounded=1;whiteSpace=wrap;html=1;fontSize=10;" parent="WIyWlLk6GJQsqaUBKTNV-1" vertex="1">
          <mxGeometry x="137.5" y="61" width="120" height="31" as="geometry" />
        </mxCell>
        <mxCell id="20" value="mongo-yape" style="shape=datastore;whiteSpace=wrap;html=1;fontSize=10;fillColor=#fff2cc;gradientColor=#ffd966;strokeColor=#d6b656;" parent="WIyWlLk6GJQsqaUBKTNV-1" vertex="1">
          <mxGeometry x="-122" y="-12" width="69" height="86" as="geometry" />
        </mxCell>
        <mxCell id="21" value="" style="endArrow=none;dashed=1;html=1;rounded=0;" parent="WIyWlLk6GJQsqaUBKTNV-1" edge="1">
          <mxGeometry width="50" height="50" relative="1" as="geometry">
            <mxPoint x="55" y="529" as="sourcePoint" />
            <mxPoint x="55" y="-151" as="targetPoint" />
          </mxGeometry>
        </mxCell>
        <mxCell id="22" value="&lt;span style=&quot;font-size: 14px&quot;&gt;&lt;b&gt;DB&lt;/b&gt;&lt;/span&gt;" style="text;html=1;strokeColor=none;fillColor=none;align=center;verticalAlign=middle;whiteSpace=wrap;rounded=0;fontSize=14;" parent="WIyWlLk6GJQsqaUBKTNV-1" vertex="1">
          <mxGeometry x="-145" y="-130" width="106" height="30" as="geometry" />
        </mxCell>
        <mxCell id="27" value="Actualizar Status" style="whiteSpace=wrap;html=1;fontSize=10;rounded=1;" parent="WIyWlLk6GJQsqaUBKTNV-1" vertex="1">
          <mxGeometry x="132" y="367" width="120" height="60" as="geometry" />
        </mxCell>
        <mxCell id="31" value="" style="endArrow=classic;html=1;fontSize=10;exitX=0;exitY=0.5;exitDx=0;exitDy=0;entryX=0.5;entryY=1;entryDx=0;entryDy=0;" parent="WIyWlLk6GJQsqaUBKTNV-1" source="27" target="48" edge="1">
          <mxGeometry width="50" height="50" relative="1" as="geometry">
            <mxPoint x="245" y="245" as="sourcePoint" />
            <mxPoint x="-87" y="113" as="targetPoint" />
            <Array as="points">
              <mxPoint x="-83" y="399" />
            </Array>
          </mxGeometry>
        </mxCell>
        <mxCell id="34" value="Servicios" style="text;html=1;strokeColor=none;fillColor=none;align=center;verticalAlign=middle;whiteSpace=wrap;rounded=0;fontSize=10;" parent="WIyWlLk6GJQsqaUBKTNV-1" vertex="1">
          <mxGeometry x="115" y="134" width="60" height="30" as="geometry" />
        </mxCell>
        <mxCell id="36" value="Servicios" style="text;html=1;strokeColor=none;fillColor=none;align=center;verticalAlign=middle;whiteSpace=wrap;rounded=0;fontSize=10;" parent="WIyWlLk6GJQsqaUBKTNV-1" vertex="1">
          <mxGeometry x="605" y="112" width="60" height="30" as="geometry" />
        </mxCell>
        <mxCell id="38" value="" style="endArrow=none;dashed=1;html=1;fontSize=10;" parent="WIyWlLk6GJQsqaUBKTNV-1" edge="1">
          <mxGeometry width="50" height="50" relative="1" as="geometry">
            <mxPoint x="-143" y="-90" as="sourcePoint" />
            <mxPoint x="930" y="-85" as="targetPoint" />
          </mxGeometry>
        </mxCell>
        <mxCell id="41" value="" style="endArrow=classic;html=1;fontSize=10;entryX=0.5;entryY=0;entryDx=0;entryDy=0;" parent="WIyWlLk6GJQsqaUBKTNV-1" source="0" target="27" edge="1">
          <mxGeometry width="50" height="50" relative="1" as="geometry">
            <mxPoint x="267" y="249" as="sourcePoint" />
            <mxPoint x="317" y="199" as="targetPoint" />
          </mxGeometry>
        </mxCell>
        <mxCell id="43" value="" style="endArrow=classic;html=1;fontSize=10;entryX=1;entryY=0.5;entryDx=0;entryDy=0;" parent="WIyWlLk6GJQsqaUBKTNV-1" source="1_NpZ_uhU7yIxvNDv878-64" target="10" edge="1">
          <mxGeometry width="50" height="50" relative="1" as="geometry">
            <mxPoint x="669.096" y="375.404" as="sourcePoint" />
            <mxPoint x="268.5" y="197" as="targetPoint" />
          </mxGeometry>
        </mxCell>
        <mxCell id="46" value="" style="endArrow=classic;html=1;fontSize=9;" parent="WIyWlLk6GJQsqaUBKTNV-1" target="8" edge="1">
          <mxGeometry width="50" height="50" relative="1" as="geometry">
            <mxPoint x="195" y="97" as="sourcePoint" />
            <mxPoint x="431" y="169" as="targetPoint" />
          </mxGeometry>
        </mxCell>
        <mxCell id="47" value="2" style="edgeLabel;html=1;align=center;verticalAlign=middle;resizable=0;points=[];fontSize=9;" parent="46" vertex="1" connectable="0">
          <mxGeometry x="-0.289" y="1" relative="1" as="geometry">
            <mxPoint as="offset" />
          </mxGeometry>
        </mxCell>
        <mxCell id="52" value="" style="endArrow=none;html=1;fontSize=9;entryX=0;entryY=0.5;entryDx=0;entryDy=0;" parent="WIyWlLk6GJQsqaUBKTNV-1" target="16" edge="1">
          <mxGeometry width="50" height="50" relative="1" as="geometry">
            <mxPoint x="-23" y="36" as="sourcePoint" />
            <mxPoint x="431" y="169" as="targetPoint" />
          </mxGeometry>
        </mxCell>
        <mxCell id="53" value="" style="endArrow=none;html=1;fontSize=9;exitX=1;exitY=0.25;exitDx=0;exitDy=0;" parent="WIyWlLk6GJQsqaUBKTNV-1" source="48" target="15" edge="1">
          <mxGeometry width="50" height="50" relative="1" as="geometry">
            <mxPoint x="381" y="219" as="sourcePoint" />
            <mxPoint x="431" y="169" as="targetPoint" />
          </mxGeometry>
        </mxCell>
        <mxCell id="54" value="" style="endArrow=none;html=1;fontSize=9;exitX=1;exitY=0.816;exitDx=0;exitDy=0;exitPerimeter=0;" parent="WIyWlLk6GJQsqaUBKTNV-1" source="48" target="19" edge="1">
          <mxGeometry width="50" height="50" relative="1" as="geometry">
            <mxPoint x="381" y="219" as="sourcePoint" />
            <mxPoint x="431" y="169" as="targetPoint" />
          </mxGeometry>
        </mxCell>
        <mxCell id="56" value="1" style="edgeLabel;html=1;align=center;verticalAlign=middle;resizable=0;points=[];fontSize=9;" parent="54" vertex="1" connectable="0">
          <mxGeometry x="0.4033" y="-3" relative="1" as="geometry">
            <mxPoint as="offset" />
          </mxGeometry>
        </mxCell>
        <mxCell id="1_NpZ_uhU7yIxvNDv878-64" value="&lt;span style=&quot;font-size: 10px; text-align: left;&quot;&gt;Validar monto&lt;/span&gt;" style="rounded=1;whiteSpace=wrap;html=1;" parent="WIyWlLk6GJQsqaUBKTNV-1" vertex="1">
          <mxGeometry x="815.5" y="185" width="120" height="60" as="geometry" />
        </mxCell>
        <mxCell id="1_NpZ_uhU7yIxvNDv878-66" value="&lt;font style=&quot;font-size: 9px;&quot;&gt;&lt;b&gt;Monto &amp;lt;=0 || &amp;gt; 1000 =&amp;gt; &lt;/b&gt;&lt;br&gt;&lt;span style=&quot;white-space: pre;&quot;&gt;&#x9;&lt;/span&gt;&lt;span style=&quot;white-space: pre;&quot;&gt;&#x9;&lt;/span&gt;&lt;span style=&quot;white-space: pre;&quot;&gt;&#x9;&lt;/span&gt;Status=3&amp;nbsp; (Rechazado)&lt;br style=&quot;&quot;&gt;&lt;b&gt;Monto &amp;lt;1000 =&amp;gt; &lt;/b&gt;&lt;br&gt;&lt;span style=&quot;white-space: pre;&quot;&gt;&#x9;&lt;/span&gt;&lt;span style=&quot;white-space: pre;&quot;&gt;&#x9;&lt;/span&gt;&lt;span style=&quot;white-space: pre;&quot;&gt;&#x9;&lt;/span&gt;Status=2 (Aprobado)&lt;/font&gt;" style="ellipse;shape=cloud;whiteSpace=wrap;html=1;dashed=1;" parent="WIyWlLk6GJQsqaUBKTNV-1" vertex="1">
          <mxGeometry x="750.5" y="327" width="203" height="104" as="geometry" />
        </mxCell>
        <mxCell id="1_NpZ_uhU7yIxvNDv878-68" value="" style="endArrow=none;dashed=1;html=1;rounded=0;exitX=0.25;exitY=0.25;exitDx=0;exitDy=0;exitPerimeter=0;entryX=0.5;entryY=1;entryDx=0;entryDy=0;" parent="WIyWlLk6GJQsqaUBKTNV-1" source="1_NpZ_uhU7yIxvNDv878-66" target="1_NpZ_uhU7yIxvNDv878-64" edge="1">
          <mxGeometry width="50" height="50" relative="1" as="geometry">
            <mxPoint x="248.5" y="261" as="sourcePoint" />
            <mxPoint x="298.5" y="211" as="targetPoint" />
          </mxGeometry>
        </mxCell>
        <mxCell id="1_NpZ_uhU7yIxvNDv878-69" value="" style="endArrow=classic;html=1;rounded=0;fontSize=9;entryX=0;entryY=0.5;entryDx=0;entryDy=0;" parent="WIyWlLk6GJQsqaUBKTNV-1" source="9" target="1_NpZ_uhU7yIxvNDv878-64" edge="1">
          <mxGeometry width="50" height="50" relative="1" as="geometry">
            <mxPoint x="248.5" y="246" as="sourcePoint" />
            <mxPoint x="298.5" y="196" as="targetPoint" />
          </mxGeometry>
        </mxCell>
      </root>
    </mxGraphModel>
  </diagram>
</mxfile>
